<svg id="Capa_1" enable-background="new 0 0 512 512" height="512" viewBox="0 0 512 512" width="512" xmlns="http://www.w3.org/2000/svg"><g><g><path d="m431.716 80.284c-97.045-97.045-254.387-97.045-351.432 0s-97.045 254.387 0 351.432 254.387 97.045 351.432 0 97.045-254.387 0-351.432zm-364.216 175.716c0-50.35 19.607-97.687 55.21-133.29s82.94-55.21 133.29-55.21c40.203 0 78.477 12.513 110.398 35.675l-263.223 263.223c-23.162-31.921-35.675-70.195-35.675-110.398zm321.79 133.29c-35.603 35.603-82.94 55.21-133.29 55.21-40.203 0-78.477-12.513-110.398-35.675l263.223-263.223c23.162 31.921 35.675 70.195 35.675 110.398 0 50.35-19.607 97.687-55.21 133.29z" fill="#ff8997"/></g><g><path d="m80.284 431.716c48.523 48.523 112.119 72.784 175.716 72.784-16.569 0-30-13.431-30-30s13.431-30 30-30c-40.203 0-78.477-12.513-110.398-35.675l110.398-110.399v-84.853l-152.825 152.825c-23.162-31.921-35.675-70.195-35.675-110.398 0-50.35 19.607-97.687 55.21-133.29s82.938-55.21 133.288-55.21c-16.567-.001-29.998-13.432-29.998-30 0-16.569 13.431-30 30-30-63.597 0-127.193 24.261-175.716 72.784-97.045 97.045-97.045 254.387 0 351.432z" fill="#ff6f7f"/></g><g><path d="m316 196-15.442-46.325c-2.722-8.166-10.365-13.675-18.973-13.675h-51.17c-8.609 0-16.251 5.509-18.974 13.675l-15.441 46.325z" fill="#6e6e6e"/></g><g><path d="m281.585 136h-51.17c-8.609 0-16.251 5.509-18.974 13.675l-15.441 46.325h51.17l15.442-46.325c2.721-8.166 10.364-13.675 18.973-13.675z" fill="#595959"/></g><g><path d="m336 176h-160c-22.091 0-40 17.909-40 40v20l120 30 120-30v-20c0-22.091-17.909-40-40-40z" fill="#848484"/></g><g><path d="m226 206c0-16.569 13.431-30 30-30h-80c-22.091 0-40 17.909-40 40v20l120 30v-30c-16.569 0-30-13.431-30-30z" fill="#6e6e6e"/></g><g><path d="m136 316c0 22.091 17.909 40 40 40h160c22.091 0 40-17.909 40-40v-80h-240z" fill="#595959"/></g><g><path d="m136 316c0 22.091 17.909 40 40 40h80v-120h-120z" fill="#474747"/></g><g><circle cx="256" cy="296" fill="#6e6e6e" r="80"/></g><g><path d="m241 361c0-8.271 6.729-15 15-15v-100c-8.271 0-15-6.729-15-15s6.729-15 15-15c-44.183 0-80 35.817-80 80s35.817 80 80 80c-8.271 0-15-6.729-15-15z" fill="#595959"/></g><g><circle cx="256" cy="296" fill="#bfe1ff" r="50"/></g><g><path d="m236 296c0-34.302 20-50 20-50-27.57 0-50 22.43-50 50s22.43 50 50 50c0 0-20-15.698-20-50z" fill="#a3d4ff"/></g><g><path d="m437.019 74.981c-48.352-48.352-112.639-74.981-181.019-74.981s-132.667 26.629-181.019 74.981-74.981 112.639-74.981 181.019 26.629 132.667 74.981 181.019 112.639 74.981 181.019 74.981 132.667-26.629 181.019-74.981 74.981-112.639 74.981-181.019-26.629-132.667-74.981-181.019zm-10.606 351.432c-45.519 45.519-106.039 70.587-170.413 70.587s-124.894-25.068-170.413-70.587-70.587-106.039-70.587-170.413 25.068-124.894 70.587-170.413 106.039-70.587 170.413-70.587 124.894 25.068 170.413 70.587 70.587 106.039 70.587 170.413-25.068 124.894-70.587 170.413z"/><path d="m414.895 141.197c-1.289-1.776-3.292-2.899-5.479-3.072-2.188-.17-4.342.621-5.894 2.173l-38.297 38.297c-8.067-6.316-18.21-10.095-29.225-10.095h-21.261l-.765-2.295 57.727-57.727c1.552-1.552 2.346-3.706 2.173-5.894s-1.295-4.19-3.072-5.479c-33.452-24.274-73.151-37.105-114.802-37.105-46.677 0-91.831 16.626-127.143 46.816-3.148 2.692-3.519 7.426-.827 10.574 2.691 3.149 7.426 3.519 10.574.827 32.598-27.869 74.29-43.217 117.396-43.217 35.492 0 69.438 10.081 98.729 29.238l-46.057 46.057-.997-2.992c-3.749-11.247-14.233-18.804-26.089-18.804h-51.17c-11.855 0-22.34 7.557-26.089 18.804l-7.065 21.196h-21.262c-26.191 0-47.5 21.309-47.5 47.5v100c0 4.407.616 8.67 1.744 12.722l-26.006 26.007c-19.157-29.29-29.238-63.236-29.238-98.728 0-43.106 15.348-84.798 43.217-117.396 2.691-3.148 2.321-7.882-.827-10.574-3.147-2.691-7.882-2.322-10.574.827-30.19 35.312-46.816 80.466-46.816 127.143 0 41.651 12.831 81.35 37.105 114.803 1.289 1.776 3.292 2.899 5.479 3.072.198.016.395.023.591.023 1.98 0 3.891-.785 5.303-2.197l28.568-28.568c8.593 12.3 22.845 20.367 38.954 20.367h4.32l-40.021 40.021c-1.552 1.552-2.346 3.706-2.173 5.894s1.295 4.19 3.072 5.479c33.452 24.275 73.151 37.106 114.802 37.106 52.354 0 101.573-20.388 138.593-57.407s57.407-86.239 57.407-138.593c0-41.651-12.831-81.35-37.105-114.803zm-78.901 162.435c-4.069-.769-7.994 1.901-8.767 5.971-6.474 34.127-36.429 58.897-71.227 58.897-39.977 0-72.5-32.523-72.5-72.5s32.523-72.5 72.5-72.5c34.798 0 64.753 24.77 71.227 58.897.772 4.069 4.696 6.74 8.767 5.971 4.069-.772 6.743-4.697 5.971-8.767-2.554-13.46-8.147-25.701-15.965-36.101h42.5v72.5c0 17.92-14.58 32.5-32.5 32.5h-10.001c7.818-10.4 13.412-22.641 15.965-36.101.772-4.07-1.901-7.995-5.97-8.767zm-117.437-151.585c1.704-5.112 6.47-8.547 11.858-8.547h51.17c5.389 0 10.154 3.435 11.858 8.547l5.484 16.453h-85.855zm-42.557 31.453h160c17.92 0 32.5 14.58 32.5 32.5v12.5h-56.828c-15.246-12.563-34.732-20-55.672-20-21.105 0-40.489 7.511-55.619 20h-56.881v-12.5c0-17.92 14.58-32.5 32.5-32.5zm-32.5 132.5v-72.5h42.544c-11.01 14.634-17.544 32.818-17.544 52.5s6.534 37.866 17.544 52.5h-10.044c-17.92 0-32.5-14.58-32.5-32.5zm240.486 67.986c-34.186 34.187-79.639 53.014-127.986 53.014-35.492 0-69.439-10.081-98.729-29.238l43.748-43.748c15.036 12.178 34.17 19.486 54.981 19.486 20.94 0 40.426-7.437 55.672-20h24.328c26.191 0 47.5-21.309 47.5-47.5v-100c0-9.771-2.968-18.861-8.047-26.42l32.309-32.309c19.157 29.291 29.238 63.237 29.238 98.729 0 48.347-18.827 93.8-53.014 127.986z"/><path d="m256 238.5c-31.706 0-57.5 25.794-57.5 57.5s25.794 57.5 57.5 57.5 57.5-25.794 57.5-57.5-25.794-57.5-57.5-57.5zm0 100c-23.435 0-42.5-19.065-42.5-42.5s19.065-42.5 42.5-42.5 42.5 19.065 42.5 42.5-19.065 42.5-42.5 42.5z"/></g></g></svg>